<svg width="200" height="70" viewBox="0 0 200 70" fill="none" xmlns="http://www.w3.org/2000/svg">
<path d="M18.681 69.5652L17.4582 68.4575C17.9227 67.4253 18.0913 66.649 17.9641 66.1284C17.831 65.575 17.355 65.0142 16.5361 64.4461L4.27274 55.8947C3.6488 55.4618 3.18194 55.2388 2.87214 55.2255C2.56235 55.2123 2.25086 55.4285 1.93768 55.874C1.81513 56.0483 1.6751 56.2682 1.51758 56.5335C1.37368 56.7795 1.30174 56.9025 1.30174 56.9025L1.1439 56.8794L0 55.7832C0 55.7832 0.0982562 55.6641 0.294769 55.4258C0.471783 55.174 0.713013 54.8514 1.01846 54.4582C1.30441 54.0514 1.62053 53.6223 1.96682 53.171C2.30723 52.6867 2.62722 52.2315 2.92678 51.8053C3.86632 50.4688 4.67357 49.2998 5.34851 48.2983C6.02345 47.2969 6.5972 46.3982 7.06975 45.6021C7.55592 44.7867 7.97106 44.0517 8.31518 43.3971L8.55194 43.4317C8.55194 43.4317 8.74212 43.6357 9.12249 44.0437C9.51648 44.4323 10.0528 44.9485 10.7316 45.5923C11.4044 46.2032 12.1689 46.8489 13.0249 47.5292L12.1615 49.0051C12.1615 49.0051 11.9928 48.8736 11.6555 48.6108C11.3181 48.3479 11.052 48.1488 10.857 48.0136C10.2136 47.5672 9.69115 47.32 9.28974 47.272C8.88834 47.2241 8.4512 47.4539 7.97833 47.9616C7.51908 48.4498 6.87415 49.2848 6.04354 50.4664C5.60781 51.0862 5.30732 51.555 5.14207 51.8726C4.97682 52.1902 4.94495 52.4419 5.04647 52.6276C5.16161 52.7939 5.3976 53.0153 5.75444 53.2917L11.7622 57.8056L13.8952 54.8331C14.113 54.5232 14.3561 54.1155 14.6244 53.61C14.9063 53.0851 15.164 52.6155 15.3973 52.201C15.6111 51.773 15.7181 51.559 15.7181 51.559L15.946 51.5443L17.4149 53.1685C17.4149 53.1685 17.2621 53.3651 16.9567 53.7584C16.6513 54.1517 16.3011 54.6292 15.9062 55.1909C15.5054 55.7197 15.1417 56.2166 14.8149 56.6815C14.5153 57.1077 14.2518 57.5444 14.0244 57.9918C13.7774 58.4256 13.5849 58.782 13.4469 59.0609L18.2202 62.5454C19.0001 63.0865 19.5878 63.3646 19.9834 63.3797C20.3789 63.3947 20.7537 63.1504 21.1077 62.6468C21.2439 62.4531 21.4179 62.1848 21.6299 61.842C21.8419 61.4992 22.0364 61.2018 22.2134 60.95C22.3845 60.6653 22.4701 60.5229 22.4701 60.5229L22.628 60.546L23.8187 61.7612C23.8187 61.7612 23.7001 61.9094 23.4627 62.2058C23.2584 62.4963 22.9832 62.8673 22.6369 63.3187C22.3042 63.7507 21.9511 64.2117 21.5776 64.7018C21.2372 65.1861 20.9308 65.6219 20.6585 66.0093C20.318 66.4936 19.9933 67.0175 19.6841 67.5811C19.3886 68.1253 19.1475 68.5921 18.9609 68.9813C18.7743 69.3706 18.681 69.5652 18.681 69.5652Z" fill="white"/>
<path d="M27.7311 54.7916C28.1743 54.2317 28.3413 53.7355 28.2319 53.3032C28.1055 52.8544 27.6395 52.2451 26.834 51.4752L21.1785 46.0695C20.613 45.529 20.136 45.2206 19.7477 45.1445C19.3594 45.0684 19.0003 45.2007 18.6705 45.5412C18.5386 45.6774 18.4321 45.8215 18.351 45.9734C18.2692 46.0919 18.2283 46.1512 18.2283 46.1512L17.9247 46.1069L17.2019 45.2686C17.6103 44.6425 18.01 44.0082 18.4012 43.3657C18.7924 42.7233 19.1182 42.1823 19.3788 41.7429C19.6394 41.3034 19.7697 41.0837 19.7697 41.0837L20.097 41.0523C20.097 41.0523 20.2094 41.2089 20.4342 41.5221C20.6754 41.8182 20.9852 42.1799 21.3635 42.6071C21.7247 43.0179 22.111 43.4199 22.5223 43.813L22.6983 43.7846C22.404 42.4869 22.3295 41.2518 22.4749 40.0793C22.6203 38.9069 22.9404 38.0653 23.435 37.5545C23.7153 37.265 23.9303 37.0771 24.08 36.9907C24.2297 36.9043 24.3046 36.8611 24.3046 36.8611L24.4816 36.8827C24.4816 36.8827 24.5851 37.0144 24.792 37.2778C24.9818 37.5248 25.2405 37.854 25.5681 38.2655C25.8785 38.6606 26.2232 39.0884 26.6022 39.549C26.9977 39.9926 27.3843 40.4113 27.7619 40.805L26.8745 41.8748C26.1718 41.2032 25.6679 40.8034 25.3626 40.6756C25.0403 40.5314 24.7389 40.604 24.4586 40.8935C24.0959 41.268 23.8626 41.8156 23.7589 42.5361C23.6552 43.2566 23.7044 44.0577 23.9065 44.9394C23.9065 44.9394 24.0611 45.1036 24.3702 45.4318C24.6622 45.7437 25.0399 46.1375 25.5033 46.6132C25.9667 47.0889 26.4472 47.5809 26.9448 48.0894C27.4253 48.5815 27.8544 49.0244 28.2321 49.4182C28.5927 49.7956 28.8329 50.0416 28.9529 50.1563C29.5356 50.7132 30.0122 51.0049 30.3827 51.0312C30.7533 51.0575 31.1694 50.8323 31.6311 50.3555C31.8124 50.1683 32.0265 49.9302 32.2731 49.6414C32.5363 49.3356 32.6679 49.1827 32.6679 49.1827L32.7955 49.2554L33.704 50.5664C33.704 50.5664 33.613 50.6434 33.4309 50.7972C33.266 50.9675 33.0517 51.1888 32.7879 51.4613C32.5241 51.7337 32.2352 52.0149 31.9212 52.305C31.6409 52.5944 31.3771 52.8669 31.1298 53.1222C30.6516 53.616 30.2232 54.0754 29.8447 54.5004C29.4661 54.9254 29.1699 55.2653 28.9562 55.52C28.7425 55.7747 28.6357 55.9021 28.6357 55.9021L27.7311 54.7916Z" fill="white"/>
<path d="M47.4927 39.7541C46.7376 40.3289 45.9983 40.594 45.2749 40.5494C44.5558 40.4718 43.8692 40.0866 43.2151 39.3939L43.0802 39.452C42.9743 40.247 42.8439 40.9713 42.6889 41.625C42.5384 42.2456 42.375 42.7718 42.1987 43.2037C42.0269 43.6024 41.8466 43.8736 41.6578 44.0173C40.9593 44.549 40.2207 44.8732 39.4418 44.9899C38.6629 45.1065 37.9105 45.0245 37.1846 44.7436C36.4775 44.4485 35.8636 43.9633 35.3429 43.2882C34.9234 42.7443 34.6867 42.1655 34.6328 41.5517C34.5977 40.9236 34.7561 40.3714 35.1079 39.8953L39.3596 34.3369L38.4333 33.0776C37.71 32.1399 36.9288 31.5738 36.0896 31.3792C35.2504 31.1846 34.4344 31.3891 33.6416 31.9926C33.113 32.395 32.6502 32.9408 32.253 33.6301C31.8558 34.3194 31.5477 35.1046 31.3285 35.9858L31.1219 36.0092L29.8491 35.0582C30.1229 34.4033 30.4462 33.6959 30.8188 32.936C31.177 32.1573 31.5502 31.4564 31.9385 30.8334C32.3269 30.2104 32.6626 29.7911 32.9458 29.5755C33.7764 28.9432 34.6 28.5544 35.4166 28.409C36.2188 28.2448 36.9806 28.3197 37.7021 28.6336C38.4281 28.9144 39.0876 29.4393 39.6806 30.2082C39.8687 30.452 40.1441 30.8674 40.507 31.4544C40.8887 32.027 41.3022 32.6796 41.7474 33.4122C42.1781 34.1261 42.6039 34.814 43.0246 35.476C43.4642 36.1236 43.8431 36.6537 44.1613 37.0663C44.4795 37.4789 44.8292 37.7187 45.2105 37.7856C45.5917 37.8526 45.9617 37.7496 46.3203 37.4766C46.6412 37.2323 46.9043 36.9129 47.1095 36.5186C47.3002 36.1055 47.4227 35.7593 47.4768 35.48L48.2204 35.6283C48.2575 35.987 48.2668 36.4264 48.2484 36.9464C48.2344 37.4333 48.1682 37.9302 48.0498 38.437C47.9503 38.9295 47.7646 39.3685 47.4927 39.7541ZM40.6638 41.738C41.0224 41.4649 41.3437 41.0269 41.6276 40.4238C41.9159 39.7876 42.1064 39.1217 42.199 38.4261L40.1275 35.449L37.1661 39.5339C36.7489 40.1194 36.7789 40.7216 37.2562 41.3405C37.6613 41.8656 38.1878 42.1792 38.8357 42.2812C39.4881 42.3502 40.0974 42.1691 40.6638 41.738Z" fill="white"/>
<path d="M59.1826 31.6061C59.7273 31.1108 60.0542 30.635 60.1635 30.1788C60.2617 29.7016 60.1679 29.1906 59.882 28.6459L56.7432 22.3582C56.1935 21.3107 55.5382 20.6243 54.7775 20.2989C54.0378 19.9626 53.2461 20.0129 52.4026 20.4498C51.8965 20.712 51.4348 21.0843 51.0176 21.5669C50.6003 22.0495 50.2468 22.5257 49.9569 22.9955C49.6882 23.4544 49.4924 23.8223 49.3695 24.0992C49.6342 24.6548 49.9434 25.3206 50.297 26.0967C50.6608 26.8409 51.0249 27.6114 51.3895 28.4084C51.7752 29.1945 52.1225 29.9073 52.4312 30.5467C52.74 31.1861 52.9768 31.663 53.1417 31.9772C53.4825 32.6267 53.8088 33.0439 54.1204 33.2289C54.4421 33.382 54.8033 33.3548 55.204 33.1472C55.3938 33.0489 55.6203 32.9183 55.8834 32.7554C56.1466 32.5924 56.2781 32.511 56.2781 32.511L56.4074 32.6039L56.8318 34.1026C56.8318 34.1026 56.6682 34.1741 56.3408 34.317C56.0135 34.4598 55.6229 34.6355 55.1691 34.8439C54.7263 35.0733 54.3045 35.2918 53.9038 35.4993C53.461 35.7287 53.0025 35.9794 52.5285 36.2516C52.0655 36.5447 51.6707 36.7891 51.3443 36.9848C51.0289 37.2015 50.8712 37.3098 50.8712 37.3098L50.3532 35.9395C50.9098 35.518 51.2431 35.1055 51.3533 34.7021C51.4634 34.2987 51.3645 33.8036 51.0567 33.217L47.0327 25.5493C46.6589 24.837 46.2846 24.4047 45.9097 24.2525C45.5238 24.0793 45.0462 24.1402 44.4768 24.4351L44.1288 24.6154L43.968 24.5388L43.5186 23.4526C44.1907 22.9446 44.8312 22.453 45.4401 21.9778C46.0379 21.4816 46.5203 21.0719 46.887 20.7487C47.2749 20.4146 47.4689 20.2475 47.4689 20.2475L47.7906 20.4006C47.7906 20.4006 47.8478 20.6374 47.9623 21.1111C48.0978 21.5738 48.2874 22.0884 48.5311 22.6549L48.6438 22.7164C48.7676 22.4924 48.9639 22.151 49.2327 21.692C49.5115 21.2012 49.8114 20.6995 50.1324 20.1869C50.4745 19.6633 50.8175 19.1925 51.1614 18.7746C51.4943 18.3357 51.7873 18.0508 52.0404 17.9197C53.3689 17.2316 54.6157 17.0521 55.7808 17.3812C56.9458 17.7103 57.8527 18.4929 58.5014 19.729C58.6443 20.0013 58.8596 20.4627 59.1473 21.113C59.4349 21.7634 59.7505 22.4925 60.094 23.3004C60.4376 24.1084 60.7751 24.8794 61.1068 25.6136C61.4384 26.3477 61.7252 26.9452 61.967 27.4061C62.2859 28.0137 62.6066 28.4204 62.9292 28.6264C63.2409 28.8113 63.597 28.8001 63.9977 28.5925C64.1875 28.4942 64.414 28.3636 64.6771 28.2007C64.9403 28.0377 65.0718 27.9562 65.0718 27.9562L65.2011 28.0492L65.6572 29.5315C65.6572 29.5315 65.5568 29.5702 65.356 29.6476C65.1873 29.7349 64.9498 29.8446 64.6436 29.9766C64.3694 30.1186 64.0582 30.2665 63.7098 30.4203C63.3934 30.5841 63.0877 30.7425 62.7924 30.8954C62.455 31.0702 62.1075 31.2768 61.7499 31.5153C61.4134 31.7429 61.0874 31.965 60.772 32.1817C60.4566 32.3983 60.2045 32.5822 60.0156 32.7334C59.8267 32.8845 59.7322 32.9601 59.7322 32.9601L59.1826 31.6061Z" fill="white"/>
<path d="M66.3469 28.1585C66.931 27.8771 67.3121 27.5847 67.4904 27.2814C67.6615 26.9555 67.6949 26.5488 67.5905 26.0613C67.4861 25.5738 67.3162 24.9582 67.0809 24.2144L61.8285 7.61423C61.4434 6.39711 60.8311 5.91963 59.9917 6.18177C59.8102 6.23845 59.6245 6.32121 59.4345 6.43005C59.2673 6.53181 59.1837 6.58269 59.1837 6.58269C59.148 6.46999 59.1159 6.36857 59.0874 6.27841C59.0744 6.15863 59.065 6.05012 59.0592 5.95288L58.924 5.28925C59.4925 5.03743 60.0538 4.76306 60.608 4.46616C61.1623 4.16925 61.6711 3.88652 62.1346 3.61795C62.598 3.34938 62.9665 3.13524 63.2401 2.97552C63.5136 2.8158 63.6504 2.73594 63.6504 2.73594L63.9937 3.11169C63.9528 3.2978 64.0225 3.83327 64.2028 4.71811C64.383 5.60294 64.6489 6.75824 65.0003 8.18401C65.3744 9.6027 65.8091 11.213 66.3044 13.0148C66.7926 14.7941 67.3314 16.6939 67.9207 18.714C68.5256 20.7046 69.149 22.7141 69.7908 24.7426C70.0119 25.4414 70.2595 25.9089 70.5337 26.1452C70.8235 26.3519 71.1839 26.388 71.615 26.2534C71.8192 26.1896 72.0652 26.1004 72.353 25.9857C72.6408 25.8711 72.7847 25.8138 72.7847 25.8138L72.8955 25.9278L73.0492 27.4772C73.0492 27.4772 72.9436 27.4978 72.7323 27.539C72.5281 27.6028 72.2636 27.673 71.9388 27.7496C71.6212 27.8488 71.2773 27.9438 70.9072 28.0347C70.5669 28.1409 70.2379 28.2437 69.9203 28.3429C69.4439 28.4916 68.9483 28.6588 68.4336 28.8443C67.9261 29.0523 67.4944 29.2243 67.1385 29.3602C66.7898 29.5186 66.6154 29.5978 66.6154 29.5978L66.3469 28.1585ZM69.1867 19.879L69.0837 19.3168L71.9139 14.1979C72.1388 13.8057 72.283 13.513 72.3465 13.3198C72.4029 13.104 72.4061 12.9173 72.3562 12.7595C72.2778 12.5116 72.0732 12.3773 71.7427 12.3567C71.4121 12.3361 70.9178 12.4286 70.2599 12.634L70.1043 12.4969L70.1003 11.4208C70.1003 11.4208 70.3081 11.3683 70.7236 11.2633C71.132 11.1358 71.6006 11.0018 72.1296 10.8614C72.6741 10.6913 73.1505 10.5426 73.5589 10.415C73.9899 10.2804 74.4515 10.1239 74.9435 9.94549C75.4283 9.74454 75.8487 9.57612 76.2046 9.44022C76.5533 9.28178 76.7277 9.20256 76.7277 9.20256L76.8833 9.33972L76.9426 10.4728C76.1972 10.9533 75.5082 11.6514 74.8755 12.5672C74.2585 13.4533 73.6664 14.4184 73.0992 15.4623C72.5548 16.4991 72.0223 17.4951 71.5018 18.4502L76.5192 21.8985C77.6271 22.6422 78.555 23.1326 79.3031 23.3695C80.0739 23.5994 80.8109 23.6045 81.5142 23.3849L81.6698 23.522L81.7758 24.5663C81.7758 24.5663 81.6086 24.668 81.2741 24.8715C80.9623 25.068 80.6165 25.275 80.2367 25.4927C79.8795 25.7033 79.6102 25.837 79.4287 25.8936C79.2018 25.9645 78.9756 25.998 78.75 25.9941C78.5471 25.9832 78.3406 25.961 78.1306 25.9275C77.7105 25.8606 77.2584 25.6922 76.7742 25.4224C76.3055 25.1229 75.6961 24.6941 74.9461 24.1358L69.1867 19.879Z" fill="white"/>
<path d="M83.2096 25.2123L83.1103 23.7557C83.7829 23.4529 84.2424 23.1016 84.4888 22.7016C84.7313 22.2783 84.8019 21.7636 84.7004 21.1577L83.2134 12.278C83.1041 11.6254 82.9186 11.1651 82.6567 10.897C82.3948 10.6289 82.041 10.5317 81.5953 10.6054C81.4076 10.6364 81.2121 10.6927 81.0088 10.7742C80.8289 10.8518 80.739 10.8906 80.739 10.8906L80.6631 9.57385C81.234 9.38369 81.8029 9.18188 82.3699 8.96842C82.9603 8.75108 83.4941 8.55508 83.9711 8.38044C84.4442 8.18248 84.8274 8.02334 85.1207 7.90302C85.414 7.7827 85.5606 7.72253 85.5606 7.72253L85.8068 8.11297C85.752 8.36154 85.7342 8.90338 85.7535 9.73848C85.7924 10.5464 85.8742 11.5388 85.999 12.7158C86.1198 13.8694 86.2719 15.1376 86.4553 16.5205C86.6347 17.88 86.8396 19.2473 87.0698 20.6223C87.183 21.2982 87.3608 21.7838 87.6031 22.0791C87.8415 22.351 88.1836 22.4502 88.6293 22.3765C88.8404 22.3416 89.0965 22.2873 89.3976 22.2136C89.6987 22.1399 89.8492 22.103 89.8492 22.103L89.943 22.2312L89.9132 23.781C89.9132 23.781 89.8057 23.7868 89.5907 23.7984C89.403 23.8294 89.143 23.8604 88.8107 23.8914C88.5057 23.9418 88.1636 23.9864 87.7843 24.0251C87.4324 24.0833 87.0923 24.1395 86.7638 24.1938C86.2712 24.2752 85.7492 24.3974 85.1979 24.5604C84.6465 24.7233 84.1773 24.8727 83.7902 25.0086C83.4031 25.1444 83.2096 25.2123 83.2096 25.2123ZM82.8288 3.93466C82.2423 4.03159 81.7771 3.91687 81.4332 3.59049C81.0892 3.26412 80.8802 2.87953 80.806 2.43671C80.7123 1.87736 80.8317 1.36663 81.1642 0.904506C81.4928 0.419079 81.9503 0.1279 82.5368 0.0309681C83.0998 -0.0620869 83.5533 0.0545715 83.8973 0.380943C84.2608 0.680133 84.4816 1.06279 84.5596 1.52891C84.6533 2.08826 84.5358 2.61065 84.2073 3.09608C83.8983 3.55432 83.4388 3.83385 82.8288 3.93466Z" fill="white"/>
<path d="M101.044 23.4108C99.5463 23.4566 98.2287 23.1659 97.091 22.5388C95.9533 21.9117 95.0456 21.0294 94.368 19.8918C93.7134 18.7299 93.362 17.3697 93.3138 15.8111C93.2765 14.6067 93.4431 13.4552 93.8136 12.3565C94.2079 11.2571 94.7606 10.2829 95.472 9.43387C96.1825 8.5612 96.9941 7.87456 97.9065 7.37394C98.842 6.84897 99.8446 6.57015 100.914 6.53748C104.456 6.4293 106.28 8.08732 106.386 11.5116C106.395 11.8186 106.382 12.1381 106.344 12.4702C106.307 12.8022 106.267 13.0634 106.226 13.2538L105.775 13.6931L95.9343 13.9936C95.9755 16.0961 96.4074 17.7494 97.2298 18.9534C98.0753 20.1331 99.2264 20.8071 100.683 20.9754C102.139 21.12 103.839 20.7135 105.785 19.7558L106.001 19.8202L106.425 20.8355C105.959 21.1806 105.4 21.5522 104.746 21.9504C104.116 22.3479 103.472 22.6866 102.815 22.9667C102.157 23.2468 101.567 23.3949 101.044 23.4108ZM96.0363 12.6786L102.48 12.1627C102.835 12.1046 103.07 12.0147 103.186 11.893C103.301 11.7713 103.353 11.5333 103.342 11.179C103.313 10.2344 103.029 9.52215 102.491 9.0422C101.976 8.56153 101.244 8.33571 100.293 8.36475C99.1992 8.39815 98.2601 8.80504 97.4753 9.58542C96.6897 10.3422 96.2101 11.3733 96.0363 12.6786Z" fill="white"/>
<path d="M127.192 26.5556L127.145 26.2899L127.599 24.976C128.426 25.0948 129.071 25.1591 129.532 25.1691C129.994 25.179 130.336 25.1249 130.559 25.0067C130.788 24.8656 130.934 24.657 130.999 24.3809C131.053 24.1508 131.09 23.8923 131.108 23.6055C131.127 23.3186 131.116 23.0007 131.075 22.6518L130.812 18.6242C130.401 18.5046 129.813 18.3562 129.048 18.1791C128.307 18.0074 127.694 17.8652 127.207 17.7525C126.536 17.5969 125.821 17.4678 125.064 17.3651C124.33 17.2678 123.76 17.1965 123.356 17.1513L121.228 20.4429C120.873 21.0159 120.664 21.4404 120.599 21.7165C120.48 22.2227 120.556 22.6284 120.826 22.9336C121.125 23.2212 121.633 23.4482 122.351 23.6145L124.331 24.0733L124.369 24.2275L123.812 25.6632C123.812 25.6632 123.574 25.5839 123.098 25.4252C122.623 25.2665 122.02 25.0783 121.29 24.8605C120.554 24.6658 119.804 24.4799 119.039 24.3028C118.484 24.1741 117.905 24.0399 117.302 23.9004C116.718 23.7892 116.215 23.6969 115.792 23.6233C115.393 23.5551 115.194 23.521 115.194 23.521L115.852 21.9632C116.517 22.0445 117.09 21.9466 117.57 21.6697C118.05 21.3928 118.589 20.814 119.186 19.9335L130.101 3.86658L132.427 3.78693L132.705 3.85132C132.705 3.85132 132.71 4.14353 132.719 4.72795C132.757 5.29472 132.79 6.09081 132.818 7.11622C132.874 8.12398 132.93 9.28936 132.986 10.6123C133.07 11.9177 133.147 13.3062 133.217 14.778C133.31 16.2551 133.409 17.758 133.514 19.2865C133.624 20.792 133.748 22.24 133.886 23.6305C133.964 24.5462 134.194 25.2303 134.576 25.6827C134.982 26.1406 135.672 26.5309 136.646 26.8536L136.683 27.0078L136.108 28.3665C136.108 28.3665 135.879 28.3013 135.421 28.171C134.986 28.046 134.482 27.905 133.909 27.7478C133.33 27.6137 132.843 27.501 132.449 27.4098C131.569 27.2059 130.719 27.033 129.897 26.8912C129.093 26.7778 128.443 26.6878 127.946 26.6211C127.443 26.5774 127.192 26.5556 127.192 26.5556ZM124.378 15.605L127.435 16.3133C127.898 16.4207 128.46 16.5264 129.119 16.6307C129.778 16.7349 130.307 16.8211 130.707 16.8893L130.085 7.21086L129.842 7.15452L124.378 15.605Z" fill="white"/>
<path d="M136.203 27.3498C136.862 27.5621 137.37 27.5911 137.724 27.4369C138.101 27.2922 138.423 26.9174 138.693 26.3124L146.367 9.06885C146.627 8.48543 146.717 8.02107 146.636 7.67578C146.587 7.31843 146.345 7.04421 145.91 6.85312L145.225 6.55215L145.138 6.39758L145.73 5.41771C146.259 5.57264 146.842 5.72507 147.477 5.875C148.134 6.03449 148.769 6.18442 149.383 6.3248C150.006 6.44356 150.538 6.53492 150.977 6.59886L150.985 7.10622C150.831 7.21926 150.478 7.74888 149.927 8.6951C149.376 9.64131 148.696 10.9056 147.888 12.488C147.101 14.08 146.224 15.8773 145.254 17.8798C145.455 17.8386 145.808 17.7744 146.315 17.6871C146.853 17.5877 147.44 17.4966 148.075 17.4139C148.732 17.3407 149.347 17.3011 149.922 17.2952C150.518 17.2989 150.969 17.3676 151.273 17.5014C152.687 18.1224 153.622 18.9723 154.078 20.0509C154.544 21.108 154.478 22.3064 153.882 23.6461C153.757 23.927 153.518 24.3772 153.164 24.9968C152.832 25.626 152.455 26.326 152.034 27.0968C151.613 27.8677 151.206 28.6061 150.814 29.3121C150.444 30.0277 150.153 30.6232 149.941 31.0986C149.662 31.7252 149.542 32.228 149.582 32.607C149.631 32.9643 149.862 33.2337 150.275 33.4153C150.406 33.4726 150.58 33.549 150.797 33.6446C151.046 33.7281 151.262 33.7972 151.446 33.8521L151.453 34.0104L150.572 35.2895C150.234 35.115 149.776 34.888 149.198 34.6084C148.642 34.3383 148.147 34.1078 147.712 33.9167C147.451 33.802 147.13 33.6743 146.751 33.5335C146.362 33.4143 145.951 33.2855 145.519 33.1472C145.077 33.0305 144.63 32.9246 144.178 32.8295L144.9 31.5579C145.63 31.6716 146.208 31.6286 146.635 31.4287C147.071 31.2071 147.415 30.8155 147.665 30.2536L150.717 23.9219C151.198 22.8415 151.329 21.9045 151.11 21.1109C150.913 20.3268 150.379 19.7437 149.509 19.3615C148.966 19.1226 148.214 18.9993 147.256 18.9915C146.319 18.9933 145.424 19.1041 144.572 19.324C144.195 20.114 143.803 20.9363 143.396 21.7911C143.012 22.6555 142.606 23.5366 142.181 24.4346C141.786 25.3206 141.383 26.2281 140.969 27.1573C140.671 27.8271 140.546 28.3408 140.595 28.6981C140.676 29.0434 140.922 29.3068 141.336 29.4883C141.466 29.5457 141.64 29.6221 141.858 29.7177C142.107 29.8011 142.323 29.8703 142.506 29.9251L142.514 30.0834L141.6 31.3482C141.24 31.1642 140.771 30.9324 140.193 30.6528C139.616 30.3732 139.109 30.1379 138.674 29.9468C138.218 29.7461 137.674 29.5073 137.043 29.2302C136.424 28.9842 135.882 28.7718 135.416 28.5927L136.203 27.3498Z" fill="white"/>
<path d="M151.271 36.5416L152.164 35.3823C152.85 35.5834 153.379 35.6321 153.752 35.5285C154.158 35.4173 154.513 35.1634 154.817 34.7669C155.121 34.3705 155.467 33.8612 155.856 33.2391L165.101 18.4595C165.415 17.9578 165.591 17.5654 165.628 17.2823C165.698 16.9916 165.62 16.7351 165.395 16.5128C165.19 16.3029 164.817 16.0722 164.274 15.8207L164.221 15.7044L164.982 14.7557C165.792 15.1168 166.615 15.4578 167.45 15.7788C168.285 16.0997 169.139 16.3905 170.012 16.6513L169.949 17.1548C169.781 17.2454 169.411 17.6571 168.841 18.3898C168.283 19.1025 167.568 20.066 166.697 21.2804C165.858 22.4871 164.912 23.8645 163.86 25.4124C162.808 26.9603 161.709 28.6048 160.564 30.3458C159.439 32.0992 158.325 33.8589 157.22 35.6248C156.843 36.2269 156.654 36.7082 156.653 37.0688C156.651 37.4295 156.842 37.7283 157.226 37.9652L158.324 38.5597L158.31 38.7175L157.257 39.8622C156.947 39.6426 156.525 39.3544 155.992 38.9977C155.48 38.6534 155.021 38.3565 154.617 38.1071C154.254 37.8826 153.77 37.6259 153.167 37.3369C152.572 37.0805 151.939 36.8154 151.271 36.5416Z" fill="white"/>
<path d="M165.46 46.5364C164.299 45.5952 163.496 44.5172 163.051 43.3026C162.607 42.0879 162.504 40.8304 162.743 39.5302C163.016 38.2266 163.649 36.9708 164.641 35.7627C165.408 34.8293 166.294 34.0685 167.299 33.4806C168.323 32.9075 169.383 32.5323 170.481 32.3548C171.593 32.159 172.659 32.1694 173.678 32.386C174.731 32.5992 175.672 33.0419 176.501 33.7142C179.246 35.9403 179.528 38.3803 177.348 41.0343C177.152 41.2722 176.931 41.5044 176.684 41.7307C176.436 41.9571 176.234 42.1286 176.077 42.2451L175.447 42.2833L167.819 36.0982C166.463 37.7122 165.697 39.2417 165.523 40.6865C165.383 42.1279 165.807 43.3866 166.795 44.4627C167.799 45.5204 169.351 46.3216 171.451 46.866L171.572 47.0554L171.222 48.0981C170.643 48.0556 169.975 47.9716 169.219 47.8461C168.481 47.7356 167.771 47.5718 167.09 47.3549C166.408 47.1379 165.865 46.8651 165.46 46.5364ZM168.765 35.172L173.97 38.981C174.276 39.1685 174.513 39.2539 174.68 39.237C174.848 39.2202 175.044 39.0745 175.27 38.8C175.871 38.0678 176.127 37.3453 176.038 36.6322C175.966 35.9341 175.562 35.2862 174.825 34.6887C173.978 34.0014 173 33.6967 171.893 33.7744C170.8 33.8339 169.757 34.2997 168.765 35.172Z" fill="white"/>
<path d="M173.143 51.2412C173.675 51.7178 174.163 51.9163 174.604 51.8367C175.063 51.7412 175.706 51.3198 176.533 50.5726L182.338 45.326C182.919 44.8013 183.26 44.349 183.362 43.9692C183.465 43.5893 183.356 43.2246 183.036 42.875C182.908 42.7352 182.77 42.6201 182.623 42.5295C182.509 42.4405 182.452 42.3961 182.452 42.3961L182.517 42.0981L183.407 41.4374C184.009 41.8838 184.619 42.3222 185.239 42.7527C185.858 43.1832 186.379 43.5422 186.804 43.8298C187.228 44.1173 187.44 44.261 187.44 44.261L187.449 44.5876C187.449 44.5876 187.285 44.6886 186.955 44.8906C186.642 45.11 186.258 45.393 185.803 45.7396C185.367 46.0703 184.937 46.4265 184.515 46.8081L184.532 46.9845C185.855 46.779 187.1 46.7873 188.268 47.0094C189.436 47.2316 190.26 47.6048 190.74 48.1291C191.012 48.4262 191.187 48.6518 191.264 48.8059C191.341 48.9601 191.379 49.0371 191.379 49.0371L191.345 49.2112C191.345 49.2112 191.206 49.305 190.928 49.4926C190.667 49.6644 190.319 49.8989 189.884 50.1962C189.467 50.4777 189.014 50.7909 188.526 51.136C188.055 51.4985 187.608 51.8538 187.188 52.202L186.172 51.2512C186.894 50.5993 187.329 50.1264 187.477 49.8323C187.644 49.5223 187.591 49.2188 187.319 48.9217C186.967 48.5372 186.432 48.2696 185.716 48.1188C184.999 47.9681 184.191 47.9636 183.292 48.1053C183.292 48.1053 183.117 48.2476 182.767 48.5322C182.434 48.8009 182.013 49.1491 181.505 49.5768C180.996 50.0045 180.47 50.4481 179.926 50.9076C179.4 51.3512 178.927 51.7471 178.506 52.0952C178.103 52.4275 177.84 52.6493 177.717 52.7606C177.119 53.3012 176.794 53.7542 176.743 54.1198C176.692 54.4854 176.89 54.9128 177.338 55.4022C177.515 55.5944 177.739 55.8224 178.013 56.0861C178.303 56.3673 178.447 56.5079 178.447 56.5079L178.366 56.6295L176.989 57.4429C176.989 57.4429 176.918 57.3476 176.775 57.1569C176.615 56.9822 176.407 56.755 176.151 56.4753C175.895 56.1957 175.632 55.8906 175.361 55.5602C175.089 55.263 174.833 54.9834 174.593 54.7213C174.129 54.2144 173.696 53.7592 173.294 53.3557C172.893 52.9521 172.571 52.636 172.329 52.4072C172.088 52.1784 171.967 52.064 171.967 52.064L173.143 51.2412Z" fill="white"/>
<path d="M182.994 65.9621C182.514 65.258 182.152 64.6022 181.91 63.9946C181.648 63.4002 181.467 62.9232 181.365 62.5636C181.277 62.2235 181.232 62.0535 181.232 62.0535L181.379 61.8263C181.622 61.7196 182.003 61.5201 182.522 61.2278C183.074 60.9419 183.639 60.6329 184.217 60.3008C184.808 59.9883 185.261 59.726 185.576 59.514L186.424 60.4413C185.125 61.3162 184.356 62.1477 184.118 62.9359C183.88 63.724 184.115 64.6364 184.822 65.673C185.329 66.4162 185.924 66.9293 186.605 67.2125C187.287 67.4956 187.874 67.4715 188.366 67.1401C188.7 66.9148 188.939 66.6115 189.081 66.2304C189.223 65.8492 189.295 65.3015 189.296 64.5872C189.297 63.8729 189.227 62.9069 189.086 61.6891C188.896 60.1899 188.923 58.9872 189.167 58.0811C189.41 57.1749 189.887 56.4832 190.595 56.006C191.402 55.4625 192.281 55.2134 193.231 55.2586C194.181 55.3038 195.114 55.6178 196.029 56.2006C196.963 56.7702 197.777 57.5635 198.471 58.5805C199.018 59.3823 199.406 60.1199 199.636 60.7931C199.879 61.4859 200 61.8323 200 61.8323L199.892 61.9904C199.892 61.9904 199.698 62.0639 199.31 62.211C198.936 62.3777 198.439 62.5977 197.821 62.8711C197.236 63.1508 196.599 63.48 195.909 63.8587L195.08 62.8329C195.08 62.8329 195.195 62.7698 195.425 62.6436C195.655 62.5173 195.839 62.4078 195.977 62.315C196.685 61.8378 197.064 61.2976 197.112 60.6943C197.193 60.0974 196.947 59.3784 196.373 58.5374C195.919 57.8725 195.375 57.4114 194.74 57.1541C194.118 56.9163 193.581 56.9499 193.128 57.2548C192.655 57.5729 192.346 58.0667 192.199 58.7362C192.066 59.4253 192.07 60.3788 192.211 61.5966C192.381 63.0238 192.439 64.1833 192.387 65.0749C192.367 65.9728 192.231 66.6783 191.977 67.1913C191.738 67.7239 191.371 68.1559 190.879 68.4873C190.131 68.991 189.259 69.2074 188.262 69.1363C187.279 69.0848 186.31 68.7809 185.356 68.2246C184.435 67.6746 183.648 66.9204 182.994 65.9621Z" fill="white"/>
</svg>
