<svg width="322" height="123" viewBox="0 0 322 123" fill="none" xmlns="http://www.w3.org/2000/svg">
<path d="M43.9655 116.903L42.2516 115.34C42.9026 113.884 43.139 112.788 42.9607 112.054C42.7741 111.273 42.1069 110.482 40.9591 109.681L23.7706 97.6159C22.896 97.0051 22.2417 96.6905 21.8074 96.6718C21.3732 96.6532 20.9366 96.9582 20.4977 97.5867C20.3259 97.8327 20.1296 98.1428 19.9089 98.5172C19.7072 98.8642 19.6063 99.0378 19.6063 99.0378L19.3851 99.0052L17.7818 97.4586C17.7818 97.4586 17.9195 97.2906 18.1949 96.9544C18.443 96.5991 18.7812 96.144 19.2093 95.5892C19.6101 95.0153 20.0532 94.41 20.5385 93.7732C21.0157 93.0899 21.4642 92.4477 21.884 91.8465C23.2009 89.9608 24.3324 88.3115 25.2784 86.8986C26.2244 85.4858 27.0286 84.2178 27.6909 83.0947C28.3723 81.9443 28.9542 80.9074 29.4365 79.9838L29.7684 80.0326C29.7684 80.0326 30.0349 80.3204 30.5681 80.896C31.1203 81.4443 31.8721 82.1726 32.8234 83.0809C33.7664 83.9427 34.8379 84.8536 36.0378 85.8135L34.8276 87.8957C34.8276 87.8957 34.5912 87.7103 34.1184 87.3394C33.6455 86.9686 33.2725 86.6877 32.9992 86.4969C32.0973 85.8671 31.3651 85.5183 30.8025 85.4507C30.2399 85.383 29.6272 85.7073 28.9644 86.4235C28.3207 87.1124 27.4167 88.2903 26.2525 89.9574C25.6418 90.8319 25.2206 91.4932 24.989 91.9413C24.7574 92.3894 24.7127 92.7445 24.855 93.0065C25.0164 93.2412 25.3472 93.5535 25.8473 93.9434L34.2679 100.312L37.2576 96.1181C37.5629 95.6809 37.9036 95.1057 38.2797 94.3925C38.6748 93.6521 39.0359 92.9894 39.363 92.4047C39.6627 91.8009 39.8126 91.4989 39.8126 91.4989L40.132 91.4781L42.1908 93.7697C42.1908 93.7697 41.9768 94.0471 41.5487 94.6019C41.1205 95.1567 40.6297 95.8304 40.0763 96.623C39.5146 97.3691 39.0047 98.0701 38.5466 98.726C38.1268 99.3272 37.7574 99.9434 37.4386 100.575C37.0925 101.187 36.8227 101.689 36.6293 102.083L43.3196 106.999C44.4128 107.762 45.2365 108.155 45.7909 108.176C46.3453 108.197 46.8706 107.853 47.3668 107.142C47.5576 106.869 47.8016 106.49 48.0987 106.007C48.3959 105.523 48.6685 105.103 48.9166 104.748C49.1565 104.346 49.2764 104.146 49.2764 104.146L49.4976 104.178L51.1666 105.893C51.1666 105.893 51.0003 106.102 50.6676 106.52C50.3813 106.93 49.9955 107.453 49.5101 108.09C49.0438 108.699 48.5489 109.35 48.0254 110.041C47.5483 110.725 47.1188 111.34 46.7371 111.886C46.26 112.569 45.8048 113.308 45.3715 114.104C44.9572 114.871 44.6194 115.53 44.3578 116.079C44.0963 116.628 43.9655 116.903 43.9655 116.903Z" fill="white"/>
<path d="M56.6502 96.0596C57.2715 95.2696 57.5055 94.5696 57.3523 93.9597C57.175 93.3266 56.5219 92.4669 55.3929 91.3807L47.466 83.7542C46.6733 82.9915 46.0049 82.5565 45.4606 82.4491C44.9163 82.3418 44.413 82.5283 43.9508 83.0087C43.7659 83.2009 43.6166 83.4041 43.5029 83.6185C43.3882 83.7857 43.3309 83.8694 43.3309 83.8694L42.9054 83.8069L41.8924 82.6241C42.4647 81.7408 43.025 80.8459 43.5733 79.9395C44.1216 79.0331 44.5783 78.2699 44.9436 77.6499C45.3088 77.0299 45.4914 76.7199 45.4914 76.7199L45.9502 76.6757C45.9502 76.6757 46.1077 76.8966 46.4227 77.3384C46.7609 77.7562 47.195 78.2665 47.7253 78.8692C48.2316 79.4488 48.773 80.0159 49.3495 80.5706L49.5962 80.5304C49.1837 78.6996 49.0793 76.9571 49.2831 75.3029C49.4869 73.6488 49.9355 72.4614 50.6288 71.7407C51.0217 71.3324 51.323 71.0673 51.5329 70.9453C51.7427 70.8234 51.8476 70.7624 51.8476 70.7624L52.0957 70.793C52.0957 70.793 52.2407 70.9788 52.5308 71.3504C52.7969 71.6989 53.1594 72.1634 53.6186 72.7439C54.0537 73.3013 54.5368 73.9049 55.068 74.5547C55.6223 75.1805 56.1642 75.7712 56.6935 76.3268L55.4496 77.836C54.4648 76.8885 53.7584 76.3245 53.3306 76.1442C52.8788 75.9407 52.4564 76.0432 52.0635 76.4515C51.5551 76.98 51.2282 77.7525 51.0828 78.769C50.9374 79.7855 51.0064 80.9158 51.2897 82.1598C51.2897 82.1598 51.5063 82.3913 51.9396 82.8544C52.3489 83.2945 52.8783 83.85 53.5277 84.5211C54.1772 85.1923 54.8507 85.8865 55.5482 86.6038C56.2217 87.2981 56.8232 87.923 57.3525 88.4786C57.8579 89.011 58.1946 89.3581 58.3628 89.5199C59.1795 90.3057 59.8475 90.7171 60.3669 90.7542C60.8862 90.7914 61.4695 90.4736 62.1166 89.801C62.3708 89.5368 62.6708 89.201 63.0165 88.7935C63.3854 88.3621 63.5698 88.1463 63.5698 88.1463L63.7486 88.249L65.022 90.0985C65.022 90.0985 64.8944 90.2071 64.6393 90.4242C64.4082 90.6644 64.1077 90.9767 63.738 91.361C63.3682 91.7453 62.9633 92.1421 62.5233 92.5514C62.1304 92.9598 61.7606 93.3441 61.414 93.7044C60.7438 94.401 60.1433 95.0491 59.6127 95.6487C59.0821 96.2484 58.667 96.7279 58.3674 97.0873C58.0679 97.4467 57.9181 97.6264 57.9181 97.6264L56.6502 96.0596Z" fill="white"/>
<path d="M84.3486 74.844C83.2902 75.655 82.2541 76.029 81.24 75.9662C80.2322 75.8566 79.2698 75.3131 78.353 74.3359L78.1639 74.4178C78.0154 75.5394 77.8326 76.5614 77.6155 77.4837C77.4045 78.3592 77.1755 79.1016 76.9284 79.7109C76.6876 80.2734 76.4348 80.656 76.1702 80.8588C75.1913 81.6089 74.1559 82.0663 73.0642 82.2309C71.9726 82.3955 70.918 82.2797 69.9005 81.8835C68.9095 81.4671 68.049 80.7826 67.3192 79.8301C66.7312 79.0628 66.3994 78.2461 66.3238 77.3802C66.2747 76.494 66.4966 75.715 66.9897 75.0432L72.9491 67.2013L71.6507 65.4246C70.637 64.1016 69.542 63.3029 68.3658 63.0284C67.1896 62.7538 66.0458 63.0423 64.9345 63.8938C64.1937 64.4615 63.5449 65.2316 62.9883 66.204C62.4316 67.1765 61.9997 68.2844 61.6925 69.5276L61.4028 69.5606L59.6189 68.2189C60.0027 67.2949 60.4558 66.2969 60.9781 65.2247C61.4801 64.1262 62.0032 63.1374 62.5475 62.2584C63.0918 61.3794 63.5624 60.7878 63.9593 60.4837C65.1235 59.5916 66.2779 59.043 67.4225 58.8379C68.5468 58.6063 69.6146 58.7119 70.6259 59.1548C71.6434 59.551 72.5678 60.2915 73.399 61.3763C73.6626 61.7203 74.0486 62.3063 74.5572 63.1345C75.0922 63.9423 75.6718 64.863 76.2958 65.8967C76.8996 66.9038 77.4963 67.8744 78.086 68.8083C78.7021 69.722 79.2332 70.4699 79.6792 71.052C80.1252 71.6341 80.6154 71.9724 81.1498 72.0669C81.6841 72.1614 82.2026 72.016 82.7053 71.6308C83.1551 71.2861 83.5238 70.8356 83.8115 70.2793C84.0788 69.6965 84.2504 69.2081 84.3264 68.8139L85.3686 69.0232C85.4205 69.5293 85.4335 70.1492 85.4078 70.8829C85.3882 71.5698 85.2954 72.2708 85.1295 72.9859C84.99 73.6807 84.7297 74.3001 84.3486 74.844ZM74.777 77.643C75.2797 77.2578 75.73 76.6397 76.1279 75.7889C76.532 74.8914 76.799 73.9519 76.9289 72.9705L74.0254 68.7703L69.8746 74.5334C69.2898 75.3595 69.3319 76.2091 70.0009 77.0822C70.5686 77.8231 71.3066 78.2655 72.2148 78.4095C73.1291 78.5067 73.9832 78.2512 74.777 77.643Z" fill="white"/>
<path d="M100.733 63.3485C101.497 62.6498 101.955 61.9785 102.108 61.3348C102.246 60.6616 102.114 59.9407 101.714 59.1722L97.3143 50.3012C96.5438 48.8233 95.6254 47.8549 94.5591 47.3958C93.5223 46.9214 92.4128 46.9924 91.2305 47.6088C90.5211 47.9786 89.874 48.504 89.2891 49.1848C88.7043 49.8656 88.2088 50.5375 87.8026 51.2004C87.4259 51.8478 87.1514 52.3669 86.9791 52.7574C87.3502 53.5413 87.7836 54.4807 88.2792 55.5756C88.789 56.6255 89.2994 57.7127 89.8105 58.8372C90.3511 59.9462 90.8378 60.9518 91.2705 61.8539C91.7033 62.756 92.0352 63.4288 92.2664 63.8722C92.7441 64.7884 93.2013 65.3771 93.6381 65.638C94.0891 65.854 94.5953 65.8156 95.1569 65.5228C95.4229 65.3841 95.7404 65.1999 96.1092 64.97C96.478 64.7401 96.6625 64.6251 96.6625 64.6251L96.8436 64.7563L97.4385 66.8707C97.4385 66.8707 97.2091 66.9715 96.7504 67.1731C96.2916 67.3747 95.7441 67.6225 95.108 67.9166C94.4873 68.2402 93.8962 68.5484 93.3346 68.8412C92.7139 69.1648 92.0713 69.5186 91.4069 69.9026C90.7579 70.3161 90.2046 70.661 89.7471 70.9371C89.305 71.2428 89.084 71.3956 89.084 71.3956L88.358 69.4622C89.1381 68.8676 89.6053 68.2856 89.7597 67.7165C89.914 67.1473 89.7755 66.4489 89.344 65.6213L83.7039 54.8033C83.18 53.7983 82.6553 53.1885 82.1298 52.9738C81.5889 52.7295 80.9195 52.8154 80.1214 53.2314L79.6337 53.4857L79.4083 53.3777L78.7785 51.8453C79.7205 51.1286 80.6182 50.435 81.4716 49.7645C82.3096 49.0645 82.9856 48.4865 83.4997 48.0305C84.0434 47.5591 84.3152 47.3234 84.3152 47.3234L84.7661 47.5394C84.7661 47.5394 84.8463 47.8735 85.0068 48.5417C85.1967 49.1945 85.4625 49.9205 85.804 50.7199L85.962 50.8066C86.1356 50.4906 86.4107 50.0088 86.7874 49.3614C87.1782 48.6689 87.5986 47.9611 88.0485 47.2378C88.528 46.4991 89.0088 45.835 89.4908 45.2453C89.9574 44.6261 90.368 44.2241 90.7227 44.0392C92.5848 43.0683 94.3324 42.8151 95.9654 43.2794C97.5983 43.7438 98.8694 44.8479 99.7786 46.5918C99.9789 46.976 100.281 47.6269 100.684 48.5445C101.087 49.462 101.529 50.4907 102.011 51.6306C102.492 52.7704 102.966 53.8582 103.43 54.894C103.895 55.9298 104.297 56.7728 104.636 57.4231C105.083 58.2802 105.533 58.8541 105.985 59.1446C106.422 59.4056 106.921 59.3896 107.482 59.0969C107.748 58.9582 108.066 58.7739 108.435 58.544C108.803 58.3141 108.988 58.1992 108.988 58.1992L109.169 58.3303L109.808 60.4216C109.808 60.4216 109.668 60.4762 109.386 60.5853C109.15 60.7086 108.817 60.8634 108.388 61.0495C108.003 61.2499 107.567 61.4585 107.079 61.6755C106.635 61.9067 106.207 62.1301 105.793 62.3459C105.32 62.5924 104.833 62.884 104.332 63.2205C103.86 63.5415 103.403 63.8549 102.961 64.1606C102.519 64.4663 102.166 64.7257 101.901 64.9389C101.636 65.1521 101.504 65.2588 101.504 65.2588L100.733 63.3485Z" fill="white"/>
<path d="M110.775 58.4845C111.594 58.0874 112.128 57.6749 112.378 57.247C112.618 56.7872 112.664 56.2135 112.518 55.5257C112.372 54.8379 112.134 53.9694 111.804 52.92L104.442 29.4998C103.902 27.7826 103.044 27.109 101.867 27.4788C101.613 27.5588 101.353 27.6755 101.087 27.8291C100.852 27.9727 100.735 28.0444 100.735 28.0444C100.685 27.8854 100.64 27.7423 100.6 27.6151C100.582 27.4462 100.569 27.2931 100.56 27.1559L100.371 26.2196C101.168 25.8643 101.955 25.4772 102.731 25.0583C103.508 24.6395 104.221 24.2406 104.871 23.8617C105.521 23.4828 106.037 23.1806 106.42 22.9553C106.804 22.7299 106.996 22.6173 106.996 22.6173L107.477 23.1474C107.419 23.41 107.517 24.1654 107.77 25.4138C108.022 26.6622 108.395 28.2921 108.888 30.3036C109.412 32.3052 110.021 34.577 110.715 37.1192C111.4 39.6295 112.155 42.3097 112.981 45.1599C113.829 47.9682 114.702 50.8033 115.602 53.6653C115.912 54.651 116.259 55.3106 116.643 55.6441C117.05 55.9357 117.555 55.9866 118.159 55.7966C118.445 55.7067 118.79 55.5808 119.193 55.4191C119.597 55.2573 119.798 55.1765 119.798 55.1765L119.954 55.3373L120.169 57.5233C120.169 57.5233 120.021 57.5524 119.725 57.6105C119.439 57.7005 119.068 57.7995 118.613 57.9077C118.168 58.0476 117.686 58.1816 117.167 58.3098C116.69 58.4597 116.229 58.6047 115.784 58.7446C115.116 58.9545 114.421 59.1903 113.7 59.452C112.988 59.7455 112.383 59.9881 111.885 60.1799C111.396 60.4034 111.151 60.5152 111.151 60.5152L110.775 58.4845ZM114.755 46.8034L114.611 46.0102L118.578 38.7883C118.893 38.2349 119.095 37.822 119.184 37.5494C119.263 37.245 119.268 36.9816 119.198 36.759C119.088 36.4092 118.801 36.2197 118.338 36.1907C117.874 36.1616 117.182 36.2921 116.26 36.5819L116.041 36.3884L116.036 34.8702C116.036 34.8702 116.327 34.7961 116.91 34.648C117.482 34.4681 118.139 34.2791 118.88 34.081C119.643 33.8411 120.311 33.6312 120.884 33.4513C121.488 33.2613 122.135 33.0405 122.824 32.7888C123.504 32.5053 124.093 32.2677 124.592 32.076C125.081 31.8524 125.325 31.7407 125.325 31.7407L125.543 31.9342L125.626 33.5328C124.581 34.2106 123.616 35.1956 122.729 36.4876C121.864 37.7378 121.034 39.0993 120.239 40.5722C119.476 42.035 118.73 43.4401 118 44.7876L125.033 49.6526C126.586 50.7019 127.886 51.3937 128.935 51.728C130.015 52.0523 131.048 52.0595 132.034 51.7497L132.252 51.9432L132.401 53.4164C132.401 53.4164 132.166 53.56 131.697 53.8471C131.26 54.1243 130.776 54.4164 130.243 54.7235C129.743 55.0206 129.365 55.2092 129.111 55.2891C128.793 55.3891 128.476 55.4364 128.159 55.4309C127.875 55.4155 127.586 55.3842 127.291 55.3369C126.703 55.2425 126.069 55.0049 125.39 54.6242C124.733 54.2018 123.879 53.5967 122.828 52.8091L114.755 46.8034Z" fill="white"/>
<path d="M134.41 54.3279L134.271 52.2729C135.214 51.8457 135.858 51.35 136.203 50.7856C136.543 50.1884 136.642 49.4624 136.5 48.6074L134.415 36.0796C134.262 35.1589 134.002 34.5095 133.635 34.1313C133.268 33.753 132.772 33.6159 132.147 33.7198C131.884 33.7636 131.61 33.843 131.325 33.958C131.073 34.0675 130.947 34.1222 130.947 34.1222L130.841 32.2645C131.641 31.9962 132.439 31.7115 133.233 31.4103C134.061 31.1037 134.809 30.8272 135.477 30.5808C136.141 30.3015 136.678 30.077 137.089 29.9072C137.5 29.7375 137.705 29.6526 137.705 29.6526L138.05 30.2034C137.974 30.5541 137.949 31.3186 137.976 32.4968C138.03 33.6366 138.145 35.0368 138.32 36.6973C138.489 38.3249 138.702 40.1141 138.959 42.0651C139.211 43.9832 139.498 45.9122 139.821 47.8522C139.979 48.8058 140.228 49.4908 140.568 49.9074C140.902 50.2911 141.382 50.431 142.006 50.327C142.302 50.2778 142.661 50.2012 143.083 50.0972C143.505 49.9932 143.716 49.9412 143.716 49.9412L143.848 50.1221L143.806 52.3086C143.806 52.3086 143.655 52.3168 143.354 52.3331C143.091 52.3769 142.726 52.4206 142.261 52.4643C141.833 52.5354 141.354 52.5983 140.822 52.6529C140.329 52.735 139.852 52.8143 139.392 52.8909C138.701 53.0058 137.97 53.1782 137.197 53.4081C136.424 53.638 135.767 53.8488 135.224 54.0405C134.681 54.2321 134.41 54.3279 134.41 54.3279ZM133.876 24.3085C133.054 24.4453 132.402 24.2834 131.92 23.8229C131.438 23.3625 131.145 22.8199 131.041 22.1951C130.91 21.406 131.077 20.6854 131.543 20.0334C132.004 19.3486 132.645 18.9378 133.467 18.801C134.256 18.6697 134.892 18.8343 135.374 19.2948C135.883 19.7169 136.193 20.2567 136.302 20.9144C136.434 21.7035 136.269 22.4405 135.808 23.1254C135.375 23.7719 134.731 24.1663 133.876 24.3085Z" fill="white"/>
<path d="M159.407 51.7863C157.308 51.8509 155.461 51.4408 153.867 50.556C152.272 49.6713 151 48.4264 150.05 46.8215C149.133 45.1823 148.64 43.2632 148.572 41.0642C148.52 39.365 148.754 37.7404 149.273 36.1904C149.826 34.6393 150.6 33.2649 151.597 32.067C152.593 30.8358 153.731 29.8671 155.01 29.1608C156.321 28.4201 157.726 28.0268 159.225 27.9807C164.19 27.828 166.746 30.1673 166.895 34.9983C166.908 35.4314 166.888 35.8822 166.836 36.3507C166.784 36.8192 166.728 37.1878 166.67 37.4564L166.039 38.0761L152.245 38.5001C152.303 41.4664 152.908 43.7989 154.061 45.4976C155.246 47.162 156.86 48.1129 158.901 48.3502C160.942 48.5543 163.325 47.9808 166.052 46.6297L166.355 46.7204L166.949 48.1528C166.297 48.6398 165.513 49.1641 164.596 49.7259C163.713 50.2866 162.811 50.7646 161.889 51.1598C160.967 51.5549 160.14 51.7638 159.407 51.7863ZM152.388 36.6449L161.42 35.917C161.918 35.835 162.248 35.7081 162.409 35.5364C162.57 35.3647 162.644 35.029 162.628 34.5292C162.587 33.1965 162.189 32.1916 161.435 31.5144C160.714 30.8363 159.687 30.5177 158.354 30.5587C156.822 30.6058 155.505 31.1798 154.405 32.2808C153.304 33.3485 152.632 34.8032 152.388 36.6449Z" fill="white"/>
<path d="M196.057 56.2231L195.99 55.8481L196.628 53.9945C197.787 54.1621 198.69 54.2529 199.337 54.2669C199.984 54.2809 200.464 54.2045 200.777 54.0379C201.097 53.8387 201.302 53.5444 201.393 53.1549C201.469 52.8302 201.52 52.4656 201.546 52.0609C201.572 51.6562 201.556 51.2077 201.5 50.7154L201.131 45.033C200.554 44.8643 199.73 44.655 198.659 44.4052C197.62 44.1629 196.76 43.9623 196.078 43.8033C195.137 43.5838 194.135 43.4016 193.074 43.2567C192.045 43.1194 191.247 43.0189 190.68 42.9551L187.697 47.599C187.201 48.4074 186.907 49.0063 186.816 49.3959C186.649 50.11 186.756 50.6824 187.134 51.113C187.553 51.5188 188.266 51.839 189.272 52.0736L192.048 52.7209L192.099 52.9384L191.319 54.9641C191.319 54.9641 190.986 54.8521 190.319 54.6282C189.653 54.4043 188.807 54.1388 187.784 53.8316C186.753 53.5569 185.701 53.2946 184.63 53.0448C183.851 52.8631 183.039 52.6738 182.195 52.477C181.376 52.3202 180.671 52.1899 180.079 52.0861C179.519 51.9898 179.24 51.9417 179.24 51.9417L180.163 49.744C181.095 49.8586 181.897 49.7205 182.57 49.3298C183.243 48.9391 183.998 48.1226 184.836 46.8803L200.134 24.2124L203.394 24.1001L203.784 24.1909C203.784 24.1909 203.79 24.6032 203.804 25.4277C203.857 26.2273 203.903 27.3505 203.942 28.7972C204.021 30.219 204.1 31.8631 204.178 33.7296C204.296 35.5713 204.404 37.5303 204.501 39.6067C204.632 41.6907 204.77 43.811 204.918 45.9675C205.073 48.0915 205.247 50.1344 205.439 52.0961C205.549 53.3881 205.871 54.3532 206.407 54.9916C206.975 55.6375 207.942 56.1882 209.308 56.6435L209.36 56.861L208.553 58.778C208.553 58.778 208.232 58.686 207.591 58.5022C206.981 58.3259 206.275 58.1268 205.471 57.9051C204.659 57.7158 203.978 57.5569 203.426 57.4282C202.192 57.1405 201 56.8966 199.848 56.6966C198.722 56.5365 197.81 56.4095 197.114 56.3155C196.409 56.2539 196.057 56.2231 196.057 56.2231ZM192.113 40.7735L196.398 41.7728C197.047 41.9243 197.834 42.0735 198.758 42.2205C199.682 42.3676 200.424 42.4892 200.983 42.5855L200.111 28.9307L199.771 28.8512L192.113 40.7735Z" fill="white"/>
<path d="M208.687 57.3436C209.611 57.643 210.322 57.684 210.819 57.4664C211.347 57.2624 211.799 56.7335 212.177 55.8799L222.934 31.552C223.298 30.7289 223.423 30.0738 223.311 29.5866C223.242 29.0825 222.903 28.6956 222.293 28.426L221.333 28.0014L221.211 27.7833L222.04 26.4008C222.782 26.6194 223.598 26.8345 224.489 27.046C225.41 27.271 226.3 27.4826 227.16 27.6806C228.034 27.8482 228.779 27.9771 229.395 28.0673L229.406 28.7831C229.19 28.9425 228.696 29.6898 227.923 31.0247C227.151 32.3597 226.198 34.1434 225.065 36.376C223.962 38.622 222.732 41.1576 221.373 43.9829C221.654 43.9248 222.15 43.8342 222.86 43.711C223.615 43.5708 224.437 43.4423 225.327 43.3255C226.247 43.2222 227.11 43.1665 227.916 43.1582C228.752 43.1633 229.383 43.2603 229.81 43.449C231.791 44.3252 233.102 45.5242 233.741 47.046C234.394 48.5373 234.302 50.2281 233.466 52.1182C233.291 52.5145 232.956 53.1497 232.46 54.0239C231.994 54.9115 231.467 55.8991 230.876 56.9866C230.286 58.0742 229.716 59.116 229.166 60.1121C228.647 61.1217 228.239 61.9618 227.943 62.6325C227.552 63.5166 227.384 64.2259 227.439 64.7606C227.508 65.2647 227.831 65.6449 228.411 65.901C228.594 65.9819 228.838 66.0897 229.142 66.2245C229.491 66.3423 229.794 66.4399 230.052 66.5173L230.062 66.7406L228.827 68.5452C228.353 68.299 227.711 67.9787 226.901 67.5843C226.122 67.2033 225.427 66.878 224.818 66.6084C224.452 66.4467 224.003 66.2664 223.471 66.0678C222.926 65.8996 222.35 65.7179 221.744 65.5228C221.125 65.3581 220.498 65.2087 219.865 65.0745L220.877 63.2805C221.899 63.441 222.71 63.3802 223.308 63.0982C223.92 62.7857 224.402 62.2331 224.752 61.4404L229.03 52.5074C229.704 50.9831 229.888 49.6611 229.581 48.5414C229.305 47.4352 228.557 46.6125 227.337 46.0733C226.575 45.7363 225.522 45.5623 224.179 45.5513C222.865 45.5538 221.612 45.7102 220.418 46.0205C219.888 47.135 219.339 48.2952 218.769 49.5012C218.23 50.7206 217.662 51.9638 217.065 53.2307C216.513 54.4807 215.947 55.7611 215.367 57.072C214.949 58.017 214.775 58.7416 214.843 59.2458C214.956 59.733 215.302 60.1046 215.881 60.3607C216.064 60.4416 216.308 60.5494 216.613 60.6842C216.961 60.802 217.265 60.8996 217.522 60.977L217.532 61.2003L216.251 62.9847C215.747 62.725 215.089 62.398 214.28 62.0035C213.47 61.6091 212.76 61.2771 212.151 61.0075C211.511 60.7244 210.748 60.3874 209.864 59.9965C208.997 59.6495 208.237 59.3497 207.583 59.0972L208.687 57.3436Z" fill="white"/>
<path d="M229.806 70.3118L231.058 68.6762C232.02 68.9599 232.762 69.0286 233.284 68.8824C233.853 68.7255 234.35 68.3674 234.776 67.808C235.202 67.2486 235.688 66.5301 236.234 65.6524L249.191 44.8007C249.631 44.0929 249.877 43.5393 249.929 43.1399C250.027 42.7298 249.918 42.3679 249.603 42.0543C249.316 41.7582 248.792 41.4327 248.032 41.0778L247.957 40.9137L249.024 39.5753C250.16 40.0848 251.313 40.5659 252.484 41.0187C253.654 41.4714 254.851 41.8818 256.075 42.2496L255.987 42.9601C255.75 43.0879 255.232 43.6687 254.433 44.7024C253.651 45.7079 252.649 47.0673 251.428 48.7806C250.252 50.4831 248.927 52.4263 247.452 54.6102C245.977 56.7941 244.437 59.1141 242.832 61.5704C241.256 64.0442 239.693 66.5269 238.145 69.0183C237.617 69.8677 237.352 70.5468 237.35 71.0556C237.348 71.5644 237.615 71.9859 238.153 72.3202L239.693 73.159L239.672 73.3816L238.197 74.9966C237.762 74.6868 237.171 74.2802 236.424 73.7769C235.706 73.2911 235.063 72.8723 234.497 72.5204C233.987 72.2037 233.31 71.8415 232.464 71.4338C231.629 71.0721 230.743 70.698 229.806 70.3118Z" fill="white"/>
<path d="M249.694 84.4128C248.067 83.0849 246.942 81.5641 246.318 79.8504C245.695 78.1367 245.551 76.3626 245.886 74.5282C246.269 72.689 247.156 70.9172 248.547 69.2129C249.622 67.8959 250.863 66.8227 252.272 65.9931C253.706 65.1846 255.193 64.6552 256.731 64.4048C258.29 64.1286 259.784 64.1432 261.213 64.4488C262.689 64.7496 264.007 65.3743 265.169 66.3228C269.017 69.4633 269.413 72.9058 266.356 76.6502C266.082 76.9859 265.772 77.3134 265.425 77.6328C265.079 77.9522 264.795 78.1941 264.575 78.3585L263.692 78.4123L253.001 69.6861C251.099 71.9633 250.027 74.1211 249.783 76.1595C249.586 78.1931 250.18 79.969 251.565 81.4872C252.972 82.9795 255.148 84.1097 258.092 84.8779L258.261 85.1451L257.77 86.6162C256.959 86.5561 256.023 86.4376 254.962 86.2606C253.928 86.1047 252.933 85.8737 251.978 85.5675C251.023 85.2614 250.262 84.8765 249.694 84.4128ZM254.326 68.3794L261.621 73.7534C262.051 74.0179 262.383 74.1383 262.617 74.1146C262.852 74.0909 263.127 73.8853 263.443 73.498C264.287 72.465 264.645 71.4456 264.52 70.4396C264.42 69.4547 263.854 68.5406 262.821 67.6975C261.633 66.728 260.263 66.298 258.71 66.4077C257.179 66.4916 255.718 67.1488 254.326 68.3794Z" fill="white"/>
<path d="M260.462 91.0505C261.209 91.723 261.892 92.003 262.511 91.8907C263.154 91.7559 264.055 91.1614 265.214 90.1072L273.351 82.7051C274.165 81.9649 274.643 81.3268 274.787 80.7909C274.93 80.2549 274.777 79.7404 274.329 79.2472C274.149 79.05 273.956 78.8875 273.75 78.7597C273.591 78.6342 273.511 78.5715 273.511 78.5715L273.602 78.151L274.849 77.2189C275.693 77.8487 276.548 78.4673 277.416 79.0747C278.284 79.682 279.015 80.1885 279.61 80.5942C280.204 80.9998 280.501 81.2026 280.501 81.2026L280.515 81.6634C280.515 81.6634 280.284 81.8059 279.822 82.0908C279.383 82.4004 278.845 82.7997 278.208 83.2887C277.596 83.7553 276.994 84.2577 276.402 84.7961L276.426 85.045C278.28 84.7551 280.026 84.7668 281.663 85.0802C283.3 85.3936 284.455 85.9201 285.128 86.6598C285.509 87.079 285.753 87.3973 285.861 87.6148C285.969 87.8322 286.023 87.941 286.023 87.941L285.976 88.1865C285.976 88.1865 285.781 88.3189 285.391 88.5836C285.025 88.8259 284.538 89.1568 283.928 89.5763C283.343 89.9733 282.708 90.4153 282.025 90.9021C281.363 91.4135 280.738 91.9149 280.148 92.4061L278.725 91.0646C279.736 90.145 280.346 89.4777 280.554 89.0628C280.787 88.6255 280.713 88.1972 280.332 87.7781C279.838 87.2356 279.089 86.858 278.085 86.6454C277.08 86.4327 275.948 86.4263 274.688 86.6263C274.688 86.6263 274.442 86.8271 273.951 87.2286C273.485 87.6077 272.895 88.099 272.183 88.7024C271.47 89.3058 270.732 89.9316 269.97 90.5799C269.233 91.2057 268.569 91.7642 267.98 92.2555C267.415 92.7243 267.046 93.0372 266.873 93.1942C266.035 93.9569 265.58 94.5961 265.509 95.1118C265.437 95.6275 265.715 96.2306 266.343 96.921C266.59 97.1922 266.905 97.5139 267.289 97.886C267.695 98.2827 267.898 98.4811 267.898 98.4811L267.783 98.6527L265.853 99.8002C265.853 99.8002 265.753 99.6657 265.554 99.3967C265.329 99.1501 265.038 98.8296 264.679 98.4351C264.32 98.0406 263.951 97.6102 263.572 97.1439C263.191 96.7247 262.832 96.3302 262.495 95.9604C261.845 95.2453 261.238 94.6031 260.675 94.0338C260.112 93.4644 259.661 93.0184 259.322 92.6956C258.984 92.3728 258.814 92.2114 258.814 92.2114L260.462 91.0505Z" fill="white"/>
<path d="M274.27 111.819C273.597 110.826 273.091 109.901 272.751 109.044C272.384 108.205 272.129 107.532 271.987 107.025C271.863 106.545 271.801 106.305 271.801 106.305L272.007 105.984C272.348 105.834 272.882 105.552 273.609 105.14C274.382 104.737 275.174 104.301 275.984 103.832C276.813 103.391 277.448 103.021 277.889 102.722L279.078 104.03C277.257 105.265 276.18 106.438 275.846 107.55C275.513 108.662 275.841 109.949 276.833 111.411C277.543 112.46 278.376 113.184 279.332 113.584C280.287 113.983 281.109 113.949 281.799 113.481C282.268 113.164 282.603 112.736 282.802 112.198C283.001 111.66 283.102 110.887 283.103 109.88C283.105 108.872 283.006 107.509 282.808 105.791C282.543 103.676 282.58 101.979 282.922 100.701C283.263 99.422 283.931 98.4462 284.924 97.7729C286.056 97.0062 287.287 96.6547 288.619 96.7185C289.951 96.7822 291.258 97.2253 292.54 98.0475C293.85 98.8511 294.991 99.9703 295.963 101.405C296.73 102.536 297.274 103.577 297.596 104.527C297.936 105.504 298.106 105.993 298.106 105.993L297.955 106.216C297.955 106.216 297.683 106.32 297.139 106.527C296.614 106.762 295.919 107.073 295.053 107.458C294.233 107.853 293.339 108.318 292.373 108.852L291.211 107.405C291.211 107.405 291.372 107.316 291.694 107.137C292.016 106.959 292.274 106.805 292.467 106.674C293.46 106.001 293.991 105.238 294.058 104.387C294.172 103.545 293.827 102.531 293.023 101.344C292.387 100.406 291.624 99.7557 290.733 99.3927C289.862 99.0572 289.109 99.1046 288.474 99.5347C287.812 99.9836 287.378 100.68 287.173 101.625C286.986 102.597 286.992 103.942 287.19 105.66C287.427 107.674 287.509 109.31 287.435 110.568C287.408 111.834 287.217 112.83 286.862 113.554C286.525 114.305 286.012 114.915 285.322 115.382C284.274 116.093 283.051 116.398 281.654 116.298C280.276 116.225 278.919 115.796 277.581 115.011C276.29 114.235 275.187 113.171 274.27 111.819Z" fill="white"/>
</svg>
