<svg width="18" height="18" viewBox="0 0 18 18" fill="none" xmlns="http://www.w3.org/2000/svg">
<path d="M11.8284 11.8284C11.457 12.1999 11.0161 12.4945 10.5307 12.6955C10.0454 12.8966 9.52529 13 9 13C8.47471 13 7.95456 12.8966 7.46926 12.6955C6.98395 12.4945 6.54299 12.1999 6.17156 11.8284M17 9C17 10.0506 16.7931 11.0909 16.391 12.0615C15.989 13.0321 15.3997 13.914 14.6569 14.6569C13.914 15.3997 13.0321 15.989 12.0615 16.391C11.0909 16.7931 10.0506 17 9 17C7.94943 17 6.90914 16.7931 5.93853 16.391C4.96793 15.989 4.08601 15.3997 3.34315 14.6569C2.60028 13.914 2.011 13.0321 1.60896 12.0615C1.20693 11.0909 1 10.0506 1 9C1 6.87827 1.84285 4.84344 3.34315 3.34315C4.84344 1.84285 6.87827 1 9 1C11.1217 1 13.1566 1.84285 14.6569 3.34315C16.1571 4.84344 17 6.87827 17 9ZM7 7C7 7.368 6.85067 7.66667 6.66667 7.66667C6.48267 7.66667 6.33333 7.368 6.33333 7C6.33333 6.632 6.48267 6.33333 6.66667 6.33333C6.85067 6.33333 7 6.632 7 7ZM6.66667 7H6.67378V7.01333H6.66667V7ZM11.6667 7C11.6667 7.368 11.5173 7.66667 11.3333 7.66667C11.1493 7.66667 11 7.368 11 7C11 6.632 11.1493 6.33333 11.3333 6.33333C11.5173 6.33333 11.6667 6.632 11.6667 7ZM11.3333 7H11.3404V7.01333H11.3333V7Z" stroke="#2F6D48" stroke-linecap="round" stroke-linejoin="round"/>
</svg>
